<svg width="23" height="22" viewBox="0 0 23 22" fill="none" xmlns="http://www.w3.org/2000/svg">
    <g clip-path="url(#clip0_95_28)">
    <path d="M8.75016 20.1666C9.25642 20.1666 9.66683 19.7562 9.66683 19.25C9.66683 18.7437 9.25642 18.3333 8.75016 18.3333C8.2439 18.3333 7.8335 18.7437 7.8335 19.25C7.8335 19.7562 8.2439 20.1666 8.75016 20.1666Z" stroke="#161616" stroke-width="1.3" stroke-linecap="round" stroke-linejoin="round"/>
    <path d="M18.8332 20.1666C19.3394 20.1666 19.7498 19.7562 19.7498 19.25C19.7498 18.7437 19.3394 18.3333 18.8332 18.3333C18.3269 18.3333 17.9165 18.7437 17.9165 19.25C17.9165 19.7562 18.3269 20.1666 18.8332 20.1666Z" stroke="#161616" stroke-width="1.3" stroke-linecap="round" stroke-linejoin="round"/>
    <path d="M1.4165 0.916687H5.08317L7.53984 13.1909C7.62366 13.6129 7.85325 13.992 8.18842 14.2618C8.52359 14.5316 8.94298 14.6749 9.37317 14.6667H18.2832C18.7134 14.6749 19.1328 14.5316 19.4679 14.2618C19.8031 13.992 20.0327 13.6129 20.1165 13.1909L21.5832 5.50002H5.99984" stroke="#161616" stroke-width="1.3" stroke-linecap="round" stroke-linejoin="round"/>
    </g>
    <defs>
    <clipPath id="clip0_95_28">
    <rect width="22" height="22" fill="white" transform="translate(0.5)"/>
    </clipPath>
    </defs>
</svg>