<svg width="22" height="22" viewBox="0 0 22 22" fill="none" xmlns="http://www.w3.org/2000/svg">
  <path d="M8.62647 18.6689C10.2519 19.1838 11.9994 19.1659 13.6139 18.6177C15.2285 18.0696 16.6257 17.02 17.6017 15.622C18.5778 14.2239 19.0816 12.5506 19.0398 10.846C18.9979 9.1415 18.4126 7.49492 17.3691 6.14645C16.3256 4.79798 14.8786 3.81817 13.2391 3.34994C11.5996 2.8817 9.85341 2.94953 8.25517 3.54354C6.65693 4.13754 5.29028 5.22664 4.35455 6.65199C3.41883 8.07734 2.96297 9.76437 3.05348 11.467" stroke="#161616" stroke-width="1.3" stroke-linecap="round" />
  <path d="M5.04199 10.0425L3.22199 11.4075C3.11533 11.4875 2.96866 11.4875 2.86199 11.4075L1.04199 10.0425" stroke="#161616" stroke-width="1.3" stroke-linecap="round" />
  <path d="M11.042 7.54248V11.2425C11.042 11.4082 11.1763 11.5425 11.342 11.5425H14.542" stroke="#161616" stroke-width="1.3" stroke-linecap="round" />
</svg>